<?xml version="1.0" encoding="utf-8"?>
<!-- Generator: Adobe Illustrator 25.0.0, SVG Export Plug-In . SVG Version: 6.00 Build 0)  -->
<svg version="1.1" id="Слой_1" xmlns="http://www.w3.org/2000/svg" xmlns:xlink="http://www.w3.org/1999/xlink" x="0px" y="0px"
	 viewBox="0 0 40 41" style="enable-background:new 0 0 40 41;" xml:space="preserve">
<style type="text/css">
	.st0{clip-path:url(#SVGID_2_);}
	.st1{fill:#00022E;}
</style>
<g>
	<defs>
		<rect id="SVGID_1_" y="0" width="40" height="41"/>
	</defs>
	<clipPath id="SVGID_2_">
		<use xlink:href="#SVGID_1_"  style="overflow:visible;"/>
	</clipPath>
	<g class="st0">
		<path class="st1" d="M10.8,1C7.3,3.3,4.9,7.3,4.9,11.9c0,4.6,2.4,8.6,6,10.8C4.9,22.7,0,17.9,0,11.9C0,9,1.1,6.3,3.2,4.2
			S8,1,10.8,1z"/>
		<path class="st1" d="M15,15.9l-2.3-1.4L10.5,16l0.7-2.6L9,11.8l2.7-0.2L12.6,9l1,2.5l2.7,0.1l-2.1,1.7L15,15.9z"/>
		<path class="st1" d="M21.5,8.8L18.6,7l-2.8,2l0.8-3.3l-2.7-2.1l3.5-0.2L18.4,0l1.3,3.2l3.4,0.1l-2.7,2.2L21.5,8.8z"/>
		<path class="st1" d="M33.7,4l2.8,2.8L5.8,37.5L3,34.7L33.7,4z"/>
		<path class="st1" d="M33.5,23.7c0,2.9-1.1,5.6-3.2,7.7s-4.8,3.2-7.7,3.2c-2.4,0-4.6-0.8-6.4-2.1l15.2-15.2
			C32.7,19.1,33.5,21.3,33.5,23.7z"/>
		<path class="st1" d="M33.4,31.3l2.3-5.5l4.3,5L33.4,31.3z"/>
		<path class="st1" d="M35.7,21.6l-2.2-5.5l6.6,0.5L35.7,21.6z"/>
		<path class="st1" d="M24.9,36.7l5.5-2.3L29.8,41L24.9,36.7z"/>
		<path class="st1" d="M15,34.4l5.5,2.3l-5,4.3L15,34.4z"/>
	</g>
</g>
</svg>
